<?xml version="1.0" encoding="UTF-8" standalone="no"?>
<!DOCTYPE svg PUBLIC "-//W3C//DTD SVG 1.1//EN"
 "http://www.w3.org/Graphics/SVG/1.1/DTD/svg11.dtd">
<!-- Generated by graphviz version 2.43.0 (0)
 -->
<!-- Title: workflow Pages: 1 -->
<svg width="311pt" height="44pt"
 viewBox="0.00 0.00 311.00 44.00" xmlns="http://www.w3.org/2000/svg" xmlns:xlink="http://www.w3.org/1999/xlink">
<g id="graph0" class="graph" transform="scale(1 1) rotate(0) translate(4 40)">
<title>workflow</title>
<polygon fill="white" stroke="transparent" points="-4,4 -4,-40 307,-40 307,4 -4,4"/>
<!-- place_new -->
<g id="node1" class="node">
<title>place_new</title>
<ellipse fill="lightgreen" stroke="#333333" cx="36" cy="-18" rx="36" ry="18"/>
<text text-anchor="start" x="28" y="-17.1" font-family="Arial" font-weight="bold" font-size="8.00">new</text>
</g>
<!-- transition_0 -->
<g id="node3" class="node">
<title>transition_0</title>
<polygon fill="none" stroke="#333333" points="195,-36 108,-36 108,0 195,0 195,-36"/>
<text text-anchor="start" x="138" y="-24.6" font-family="Arial" font-weight="bold" font-size="8.00">resize</text>
<text text-anchor="start" x="161" y="-24.6" font-family="Arial" baseline-shift="super" font-size="8.00">1</text>
<text text-anchor="start" x="116" y="-16.6" font-family="Arial" text-decoration="underline" font-size="8.00">subject.getDriveUrl(</text>
<text text-anchor="start" x="149.5" y="-8.6" font-family="Arial" text-decoration="underline" font-size="8.00">)</text>
</g>
<!-- place_new&#45;&gt;transition_0 -->
<!-- new -->
<g id="edge1" class="edge">
<title>place_new&#45;&gt;transition_0</title>
<path fill="none" stroke="#333333" d="M72.29,-18C81.82,-18 92.3,-18 102.4,-18"/>
<polygon fill="#333333" stroke="#333333" points="102.65,-19.75 107.65,-18 102.65,-16.25 102.65,-19.75"/>
</g>
<!-- place_resized -->
<g id="node2" class="node">
<title>place_resized</title>
<ellipse fill="lightgreen" stroke="#333333" cx="267" cy="-18" rx="36" ry="18"/>
<text text-anchor="start" x="253" y="-17.1" font-family="Arial" font-weight="bold" font-size="8.00">resized</text>
</g>
<!-- transition_0&#45;&gt;place_resized -->
<g id="edge2" class="edge">
<title>transition_0&#45;&gt;place_resized</title>
<path fill="none" stroke="#333333" d="M195.09,-18C205.16,-18 215.86,-18 225.82,-18"/>
<polygon fill="#333333" stroke="#333333" points="225.95,-19.75 230.95,-18 225.95,-16.25 225.95,-19.75"/>
</g>
</g>
</svg>
