<?xml version="1.0" encoding="UTF-8" standalone="no"?>
<!DOCTYPE svg PUBLIC "-//W3C//DTD SVG 1.1//EN"
 "http://www.w3.org/Graphics/SVG/1.1/DTD/svg11.dtd">
<!-- Generated by graphviz version 2.43.0 (0)
 -->
<!-- Title: workflow Pages: 1 -->
<svg width="368pt" height="544pt"
 viewBox="0.00 0.00 368.00 544.00" xmlns="http://www.w3.org/2000/svg" xmlns:xlink="http://www.w3.org/1999/xlink">
<g id="graph0" class="graph" transform="scale(1 1) rotate(0) translate(4 540)">
<title>workflow</title>
<polygon fill="white" stroke="transparent" points="-4,4 -4,-540 364,-540 364,4 -4,4"/>
<text text-anchor="start" x="125" y="-8.8" font-family="Times,serif" font-weight="bold" font-size="14.00">LocationWorkflow</text>
<!-- place_new -->
<g id="node1" class="node">
<title>place_new</title>
<ellipse fill="lightgreen" stroke="lightBlue" cx="288" cy="-491" rx="72" ry="36"/>
<text text-anchor="start" x="280" y="-490.1" font-family="Arial" font-weight="bold" font-size="8.00">new</text>
<text text-anchor="middle" x="144.5" y="-529.6" font-family="Arial" font-size="8.00">Place new: starting point, after persisted</text>
</g>
<!-- transition_geocode -->
<g id="node4" class="node">
<title>transition_geocode</title>
<polygon fill="pink" stroke="lightBlue" points="360,-419 216,-419 216,-347 360,-347 360,-419"/>
<text text-anchor="start" x="270.5" y="-389.6" font-family="Arial" font-weight="bold" font-size="8.00">geocode</text>
<text text-anchor="start" x="258.5" y="-381.6" font-family="Arial" font-size="8.00">engine: geoapify</text>
<text text-anchor="start" x="267.5" y="-373.6" font-family="Arial" text-decoration="underline" font-size="8.00">getAddress</text>
<text text-anchor="middle" x="125.5" y="-421.6" font-family="Arial" font-size="8.00">Transition geocode: geocode the address if it exists</text>
</g>
<!-- place_new&#45;&gt;transition_geocode -->
<!-- new -->
<g id="edge1" class="edge">
<title>place_new&#45;&gt;transition_geocode</title>
<path fill="none" stroke="#333333" d="M288,-455C288,-445.24 288,-434.56 288,-424.51"/>
<polygon fill="#333333" stroke="#333333" points="289.75,-424.33 288,-419.33 286.25,-424.33 289.75,-424.33"/>
</g>
<!-- place_geocoded -->
<g id="node2" class="node">
<title>place_geocoded</title>
<ellipse fill="lightgreen" stroke="lightBlue" cx="288" cy="-275" rx="72" ry="36"/>
<text text-anchor="start" x="268" y="-274.1" font-family="Arial" font-weight="bold" font-size="8.00">geocoded</text>
<text text-anchor="middle" x="185" y="-313.6" font-family="Arial" font-size="8.00">Place geocoded: </text>
</g>
<!-- transition_approve -->
<g id="node5" class="node">
<title>transition_approve</title>
<polygon fill="lightBlue" stroke="lightBlue" points="360,-203 216,-203 216,-131 360,-131 360,-203"/>
<text text-anchor="start" x="271.5" y="-169.6" font-family="Arial" font-weight="bold" font-size="8.00">approve</text>
<text text-anchor="start" x="261.5" y="-161.6" font-family="Arial" text-decoration="underline" font-size="8.00">ROLE_ADMIN</text>
<text text-anchor="middle" x="181" y="-205.6" font-family="Arial" font-size="8.00">Transition approve: </text>
</g>
<!-- place_geocoded&#45;&gt;transition_approve -->
<!-- geocoded -->
<g id="edge3" class="edge">
<title>place_geocoded&#45;&gt;transition_approve</title>
<path fill="none" stroke="#333333" d="M288,-239C288,-229.24 288,-218.56 288,-208.51"/>
<polygon fill="#333333" stroke="#333333" points="289.75,-208.33 288,-203.33 286.25,-208.33 289.75,-208.33"/>
</g>
<!-- place_approved -->
<g id="node3" class="node">
<title>place_approved</title>
<ellipse fill="lightgreen" stroke="lightBlue" cx="288" cy="-59" rx="72" ry="36"/>
<text text-anchor="start" x="269" y="-58.1" font-family="Arial" font-weight="bold" font-size="8.00">approved</text>
<text text-anchor="middle" x="108" y="-97.6" font-family="Arial" font-size="8.00">Place approved: this place is now visible on the map and app</text>
</g>
<!-- transition_geocode&#45;&gt;place_geocoded -->
<g id="edge2" class="edge">
<title>transition_geocode&#45;&gt;place_geocoded</title>
<path fill="none" stroke="#333333" d="M288,-347C288,-337.24 288,-326.56 288,-316.51"/>
<polygon fill="#333333" stroke="#333333" points="289.75,-316.33 288,-311.33 286.25,-316.33 289.75,-316.33"/>
</g>
<!-- transition_approve&#45;&gt;place_approved -->
<g id="edge4" class="edge">
<title>transition_approve&#45;&gt;place_approved</title>
<path fill="none" stroke="#333333" d="M288,-131C288,-121.24 288,-110.56 288,-100.51"/>
<polygon fill="#333333" stroke="#333333" points="289.75,-100.33 288,-95.33 286.25,-100.33 289.75,-100.33"/>
</g>
</g>
</svg>
