<?xml version="1.0" encoding="UTF-8" standalone="no"?>
<!DOCTYPE svg PUBLIC "-//W3C//DTD SVG 1.1//EN"
 "http://www.w3.org/Graphics/SVG/1.1/DTD/svg11.dtd">
<!-- Generated by graphviz version 2.43.0 (0)
 -->
<!-- Title: workflow Pages: 1 -->
<svg width="222pt" height="544pt"
 viewBox="0.00 0.00 222.00 544.00" xmlns="http://www.w3.org/2000/svg" xmlns:xlink="http://www.w3.org/1999/xlink">
<g id="graph0" class="graph" transform="scale(1 1) rotate(0) translate(4 540)">
<title>workflow</title>
<polygon fill="white" stroke="transparent" points="-4,4 -4,-540 218,-540 218,4 -4,4"/>
<text text-anchor="start" x="58.5" y="-8.8" font-family="Times,serif" font-weight="bold" font-size="14.00">MediaWorkflow</text>
<!-- place_new -->
<g id="node1" class="node">
<title>place_new</title>
<ellipse fill="lightgreen" stroke="lightBlue" cx="142" cy="-491" rx="72" ry="36"/>
<text text-anchor="start" x="134" y="-490.1" font-family="Arial" font-weight="bold" font-size="8.00">new</text>
<text text-anchor="middle" x="49" y="-529.6" font-family="Arial" font-size="8.00">Place new: </text>
</g>
<!-- transition_dispatch -->
<g id="node4" class="node">
<title>transition_dispatch</title>
<polygon fill="lightBlue" stroke="lightBlue" points="214,-419 70,-419 70,-347 214,-347 214,-419"/>
<text text-anchor="start" x="124.5" y="-382.1" font-family="Arial" font-weight="bold" font-size="8.00">dispatch</text>
<text text-anchor="middle" x="35" y="-421.6" font-family="Arial" font-size="8.00">Transition dispatch: </text>
</g>
<!-- place_new&#45;&gt;transition_dispatch -->
<!-- new -->
<g id="edge1" class="edge">
<title>place_new&#45;&gt;transition_dispatch</title>
<path fill="none" stroke="#333333" d="M142,-455C142,-445.24 142,-434.56 142,-424.51"/>
<polygon fill="#333333" stroke="#333333" points="143.75,-424.33 142,-419.33 140.25,-424.33 143.75,-424.33"/>
</g>
<!-- place_dispatched -->
<g id="node2" class="node">
<title>place_dispatched</title>
<ellipse fill="lightgreen" stroke="lightBlue" cx="142" cy="-275" rx="72" ry="36"/>
<text text-anchor="start" x="119.5" y="-274.1" font-family="Arial" font-weight="bold" font-size="8.00">dispatched</text>
<text text-anchor="middle" x="37.5" y="-313.6" font-family="Arial" font-size="8.00">Place dispatched: </text>
</g>
<!-- transition_resize -->
<g id="node5" class="node">
<title>transition_resize</title>
<polygon fill="lightBlue" stroke="lightBlue" points="214,-203 70,-203 70,-131 214,-131 214,-203"/>
<text text-anchor="start" x="130.5" y="-169.6" font-family="Arial" font-weight="bold" font-size="8.00">resize</text>
<text text-anchor="start" x="121" y="-161.6" font-family="Arial" text-decoration="underline" font-size="8.00">resized != []</text>
<text text-anchor="middle" x="39" y="-205.6" font-family="Arial" font-size="8.00">Transition resize: </text>
</g>
<!-- place_dispatched&#45;&gt;transition_resize -->
<!-- dispatched -->
<g id="edge3" class="edge">
<title>place_dispatched&#45;&gt;transition_resize</title>
<path fill="none" stroke="#333333" d="M142,-239C142,-229.24 142,-218.56 142,-208.51"/>
<polygon fill="#333333" stroke="#333333" points="143.75,-208.33 142,-203.33 140.25,-208.33 143.75,-208.33"/>
</g>
<!-- place_resized -->
<g id="node3" class="node">
<title>place_resized</title>
<ellipse fill="lightgreen" stroke="lightBlue" cx="142" cy="-59" rx="72" ry="36"/>
<text text-anchor="start" x="128" y="-58.1" font-family="Arial" font-weight="bold" font-size="8.00">resized</text>
<text text-anchor="middle" x="44" y="-97.6" font-family="Arial" font-size="8.00">Place resized: </text>
</g>
<!-- transition_dispatch&#45;&gt;place_dispatched -->
<g id="edge2" class="edge">
<title>transition_dispatch&#45;&gt;place_dispatched</title>
<path fill="none" stroke="#333333" d="M142,-347C142,-337.24 142,-326.56 142,-316.51"/>
<polygon fill="#333333" stroke="#333333" points="143.75,-316.33 142,-311.33 140.25,-316.33 143.75,-316.33"/>
</g>
<!-- transition_resize&#45;&gt;place_resized -->
<g id="edge4" class="edge">
<title>transition_resize&#45;&gt;place_resized</title>
<path fill="none" stroke="#333333" d="M142,-131C142,-121.24 142,-110.56 142,-100.51"/>
<polygon fill="#333333" stroke="#333333" points="143.75,-100.33 142,-95.33 140.25,-100.33 143.75,-100.33"/>
</g>
</g>
</svg>
