<?xml version="1.0" encoding="UTF-8" standalone="no"?>
<!DOCTYPE svg PUBLIC "-//W3C//DTD SVG 1.1//EN"
 "http://www.w3.org/Graphics/SVG/1.1/DTD/svg11.dtd">
<!-- Generated by graphviz version 2.43.0 (0)
 -->
<!-- Title: workflow Pages: 1 -->
<svg width="214pt" height="328pt"
 viewBox="0.00 0.00 214.00 328.00" xmlns="http://www.w3.org/2000/svg" xmlns:xlink="http://www.w3.org/1999/xlink">
<g id="graph0" class="graph" transform="scale(1 1) rotate(0) translate(4 324)">
<title>workflow</title>
<polygon fill="white" stroke="transparent" points="-4,4 -4,-324 210,-324 210,4 -4,4"/>
<text text-anchor="start" x="57" y="-8.8" font-family="Times,serif" font-weight="bold" font-size="14.00">SacroWorkflow</text>
<!-- place_new -->
<g id="node1" class="node">
<title>place_new</title>
<ellipse fill="lightgreen" stroke="lightBlue" cx="134" cy="-275" rx="72" ry="36"/>
<text text-anchor="start" x="126" y="-274.1" font-family="Arial" font-weight="bold" font-size="8.00">new</text>
<text text-anchor="middle" x="41" y="-313.6" font-family="Arial" font-size="8.00">Place new: </text>
</g>
<!-- transition_resize -->
<g id="node3" class="node">
<title>transition_resize</title>
<polygon fill="lightBlue" stroke="lightBlue" points="206,-203 62,-203 62,-131 206,-131 206,-203"/>
<text text-anchor="start" x="122.5" y="-169.6" font-family="Arial" font-weight="bold" font-size="8.00">resize</text>
<text text-anchor="start" x="113.5" y="-161.6" font-family="Arial" text-decoration="underline" font-size="8.00">getDriveUrl</text>
<text text-anchor="middle" x="31" y="-205.6" font-family="Arial" font-size="8.00">Transition resize: </text>
</g>
<!-- place_new&#45;&gt;transition_resize -->
<!-- new -->
<g id="edge1" class="edge">
<title>place_new&#45;&gt;transition_resize</title>
<path fill="none" stroke="#333333" d="M134,-239C134,-229.24 134,-218.56 134,-208.51"/>
<polygon fill="#333333" stroke="#333333" points="135.75,-208.33 134,-203.33 132.25,-208.33 135.75,-208.33"/>
</g>
<!-- place_resized -->
<g id="node2" class="node">
<title>place_resized</title>
<ellipse fill="lightgreen" stroke="lightBlue" cx="134" cy="-59" rx="72" ry="36"/>
<text text-anchor="start" x="120" y="-58.1" font-family="Arial" font-weight="bold" font-size="8.00">resized</text>
<text text-anchor="middle" x="36" y="-97.6" font-family="Arial" font-size="8.00">Place resized: </text>
</g>
<!-- transition_resize&#45;&gt;place_resized -->
<g id="edge2" class="edge">
<title>transition_resize&#45;&gt;place_resized</title>
<path fill="none" stroke="#333333" d="M134,-131C134,-121.24 134,-110.56 134,-100.51"/>
<polygon fill="#333333" stroke="#333333" points="135.75,-100.33 134,-95.33 132.25,-100.33 135.75,-100.33"/>
</g>
</g>
</svg>
